<?xml version="1.0" standalone="no"?>
<!DOCTYPE svg PUBLIC "-//W3C//DTD SVG 20010904//EN"
 "http://www.w3.org/TR/2001/REC-SVG-20010904/DTD/svg10.dtd">
<svg version="1.0" xmlns="http://www.w3.org/2000/svg"
 width="256.000000pt" height="256.000000pt" viewBox="0 0 256.000000 256.000000"
 preserveAspectRatio="xMidYMid meet">

<g transform="translate(0.000000,256.000000) scale(0.100000,-0.100000)"
fill="#000000" stroke="none">
<path d="M1125 2385 c-454 -100 -719 -584 -556 -1015 11 -30 81 -158 154 -285
109 -187 131 -231 118 -237 -9 -4 -59 -18 -111 -33 -248 -68 -411 -202 -410
-336 1 -38 38 -111 78 -152 100 -103 306 -184 570 -224 148 -22 489 -22 632 1
335 54 554 162 619 306 39 86 22 150 -64 236 -72 73 -181 130 -325 169 -52 15
-102 29 -111 33 -13 6 9 50 118 237 184 317 209 392 200 585 -20 412 -356 733
-764 729 -48 0 -115 -7 -148 -14z m300 -80 c86 -18 213 -80 282 -137 58 -49
127 -132 166 -199 98 -172 113 -414 36 -588 -41 -93 -585 -1024 -606 -1038
-46 -30 -25 -63 -508 777 -160 280 -186 344 -193 490 -12 280 144 533 403 651
126 57 280 73 420 44z m-381 -1776 c135 -233 141 -242 184 -261 39 -18 50 -19
85 -8 21 6 49 22 61 35 11 13 80 125 151 250 l130 226 40 -6 c64 -9 234 -64
297 -96 329 -166 130 -403 -407 -486 -150 -23 -460 -23 -610 0 -343 53 -565
171 -565 301 0 100 103 180 315 244 55 17 109 33 120 35 57 13 54 17 199 -234z"/>
<path d="M1148 2184 c-230 -55 -391 -249 -406 -486 -17 -293 163 -523 448
-574 173 -30 344 23 470 147 108 106 160 233 160 389 0 150 -52 274 -159 380
-138 137 -326 190 -513 144z m247 -79 c168 -44 297 -173 334 -336 17 -72 13
-181 -9 -252 -24 -78 -86 -175 -140 -217 -57 -45 -157 -88 -235 -100 -196 -31
-402 82 -487 267 -43 93 -51 227 -19 331 70 231 319 368 556 307z"/>
<path d="M920 1815 c-19 -23 -25 -125 -10 -170 16 -50 75 -114 125 -136 71
-33 174 -22 221 22 l21 20 38 -25 c97 -66 246 -35 312 65 47 72 41 219 -9 235
-23 7 -38 -7 -70 -66 -21 -37 -45 -35 -94 11 -17 16 -45 34 -63 39 -34 9 -88
4 -96 -11 -3 -4 -22 -1 -42 7 -49 21 -96 11 -142 -32 -54 -48 -83 -46 -113 9
-25 46 -56 58 -78 32z m326 -95 l33 -21 40 21 c22 11 42 20 45 20 2 0 23 -15
45 -34 54 -45 102 -61 142 -47 l30 10 -17 -27 c-24 -42 -62 -65 -114 -70 -52
-5 -90 11 -129 52 -29 31 -66 34 -81 5 -41 -76 -170 -77 -229 -3 -28 36 -26
44 7 35 42 -12 88 3 132 43 47 42 52 43 96 16z"/>
</g>
</svg>
