<svg width="17" height="17" viewBox="0 0 17 17" fill="none" xmlns="http://www.w3.org/2000/svg">
<path d="M14.9107 15.8818L11.4721 12.4432C10.9314 12.9118 10.3007 13.2767 9.57982 13.538C8.85896 13.7993 8.09304 13.93 7.28206 13.93C5.33572 13.93 3.68674 13.2542 2.33512 11.9026C0.983491 10.5509 0.307678 8.91997 0.307678 7.00967C0.307678 5.09938 0.983491 3.46842 2.33512 2.11679C3.68674 0.765168 5.32671 0.0893555 7.25503 0.0893555C9.16533 0.0893555 10.7918 0.765168 12.1344 2.11679C13.477 3.46842 14.1483 5.09938 14.1483 7.00967C14.1483 7.78461 14.0222 8.5325 13.7699 9.25337C13.5176 9.97424 13.1391 10.65 12.6345 11.2808L16.1272 14.7194C16.2894 14.8636 16.3705 15.0483 16.3705 15.2736C16.3705 15.4988 16.2804 15.7016 16.1001 15.8818C15.9379 16.044 15.7397 16.1251 15.5054 16.1251C15.2711 16.1251 15.0729 16.044 14.9107 15.8818ZM7.25503 12.308C8.71478 12.308 9.95828 11.7899 10.9855 10.7537C12.0127 9.71743 12.5264 8.46943 12.5264 7.00967C12.5264 5.54992 12.0127 4.30192 10.9855 3.26567C9.95828 2.22943 8.71478 1.7113 7.25503 1.7113C5.77725 1.7113 4.52024 2.22943 3.484 3.26567C2.44775 4.30192 1.92963 5.54992 1.92963 7.00967C1.92963 8.46943 2.44775 9.71743 3.484 10.7537C4.52024 11.7899 5.77725 12.308 7.25503 12.308Z" fill="#5E5E5E"/>
</svg>
